<svg height="512" viewBox="0 0 64 64" width="512" xmlns="http://www.w3.org/2000/svg"><g id="Brain-Learning-Exercise-Gym-Head"><path d="m42 51.96v9.04h-20v-9.04a17.967 17.967 0 0 0 20 0z" fill="#ffc477"/><path d="m13 13h38v6h-38z" fill="#d8d7da"/><path d="m17 31v8h-3a4 4 0 0 1 0-8z" fill="#ffb655"/><path d="m50 31h-2v8h2a4 4 0 0 0 0-8z" fill="#ffb655"/><path d="m42 51.96v3a17.967 17.967 0 0 1 -20 0v-3a17.967 17.967 0 0 0 20 0z" fill="#ffb655"/><path d="m14 28c0 2.21 8.06 4 18 4s18-1.79 18-4v10c0 .33-.01.67-.03 1a17.99 17.99 0 0 1 -27.97 13.96 17.722 17.722 0 0 1 -2.73-2.23 17.987 17.987 0 0 1 -5.24-11.73c-.02-.33-.03-.67-.03-1z" fill="#ffc477"/><path d="m57 13h4v6h-4z" fill="#d8d7da"/><path d="m57 13v11a1 1 0 0 1 -1 1h-4a1 1 0 0 1 -1-1v-16a1 1 0 0 1 1-1h4a1 1 0 0 1 1 1z" fill="#898890"/><ellipse cx="32" cy="28" fill="#ffb655" rx="18" ry="4"/><path d="m26 6 1-3h3l2 2v22l-2 2h-3l-1-3-4-1v-.33-1.67l-3-3v-1-4l1.33-2 .67-1v-4l2-2z" fill="#ff9811"/><path d="m3 13h4v6h-4z" fill="#d8d7da"/><path d="m43 12 .67 1 1.33 2v4 1l-3 3v1.67.33l-4 1-1 3h-3l-2-2v-22l2-2h3l1 3h3l2 2z" fill="#ff9811"/><path d="m13 19v5a1 1 0 0 1 -1 1h-4a1 1 0 0 1 -1-1v-16a1 1 0 0 1 1-1h4a1 1 0 0 1 1 1z" fill="#898890"/><g fill="#ee8700"><path d="m45.832 14.445-1.832-2.745v-3.7a1 1 0 0 0 -.293-.707l-2-2a1 1 0 0 0 -.707-.293h-2.279l-.772-2.316a1 1 0 0 0 -.949-.684h-3a1 1 0 0 0 -.707.293l-1.293 1.293-1.293-1.293a1 1 0 0 0 -.707-.293h-3a1 1 0 0 0 -.949.684l-.772 2.316h-2.279a1 1 0 0 0 -.707.293l-2 2a1 1 0 0 0 -.293.707v3.7l-1.832 2.748a1.006 1.006 0 0 0 -.168.552v5a1 1 0 0 0 .293.707l2.707 2.707v1.586a1 1 0 0 0 .757.97l3.468.867.826 2.479a1 1 0 0 0 .949.684h3a1 1 0 0 0 .707-.293l1.293-1.293 1.293 1.293a1 1 0 0 0 .707.293h3a1 1 0 0 0 .949-.684l.826-2.479 3.468-.867a1 1 0 0 0 .757-.97v-1.586l2.707-2.707a1 1 0 0 0 .293-.707v-5a1.006 1.006 0 0 0 -.168-.555zm-16.246 13.555h-1.865l-.577-1.73 1.563-1.563a1 1 0 0 0 .293-.707v-1a1 1 0 0 0 -1-1 1 1 0 0 0 -1 1v.586l-1.307 1.307-2.693-.674v-4.219a1 1 0 0 0 -1-1 1 1 0 0 0 -1 1v.586l-1-1v-4.286l1.155-1.733.845.844v.589a1 1 0 0 0 1 1 1 1 0 0 0 1-1v-1a1 1 0 0 0 -.293-.707l-1.707-1.707v-3.172l1.414-1.414h2.172l1.414 1.414v.586a1 1 0 0 0 1 1 1 1 0 0 0 1-1v-1a1 1 0 0 0 -.293-.707l-1.563-1.563.577-1.73h1.865l1.414 1.414v21.172zm14.414-8.414-1 1v-.586a1 1 0 0 0 -1-1 1 1 0 0 0 -1 1v4.219l-2.693.674-1.307-1.307v-.586a1 1 0 0 0 -1-1 1 1 0 0 0 -1 1v1a1 1 0 0 0 .293.707l1.563 1.563-.577 1.73h-1.865l-1.414-1.414v-21.172l1.414-1.414h1.865l.577 1.73-1.563 1.563a1 1 0 0 0 -.293.707v1a1 1 0 0 0 1 1 1 1 0 0 0 1-1v-.586l1.414-1.414h2.172l1.414 1.414v3.172l-1.707 1.707a1 1 0 0 0 -.293.707v1a1 1 0 0 0 1 1 1 1 0 0 0 1-1v-.586l.845-.844 1.155 1.73z"/><path d="m38 14.586-1-1v-1.586a1 1 0 0 0 -1-1 1 1 0 0 0 -1 1v2a1 1 0 0 0 .293.707l1.293 1.293a1 1 0 0 0 1.414 0 1 1 0 0 0 0-1.414z"/><path d="m27 13.586-1 1a1 1 0 0 0 0 1.414 1 1 0 0 0 1.414 0l1.293-1.293a1 1 0 0 0 .293-.707v-2a1 1 0 0 0 -1-1 1 1 0 0 0 -1 1z"/><path d="m25.292 19.294a1 1 0 0 0 -.292.706v1a1 1 0 0 0 1 1 1 1 0 0 0 1-1v-.586l.39-.39a1 1 0 0 0 0-1.414 1 1 0 0 0 -1.414 0z"/><path d="m38.708 19.294a1 1 0 0 1 .292.706v1a1 1 0 0 1 -1 1 1 1 0 0 1 -1-1v-.586l-.39-.39a1 1 0 0 1 0-1.414 1 1 0 0 1 1.414 0z"/><path d="m31.4 45.942a3.081 3.081 0 0 1 -2.4-3.06v-4.882a1 1 0 0 1 1-1 1 1 0 0 1 1 1v5a1 1 0 0 0 2 0v-5a1 1 0 0 1 1-1 1 1 0 0 1 1 1v5a3.005 3.005 0 0 1 -3.6 2.942z"/><path d="m42.727 38a.939.939 0 0 1 -.842-.465 1 1 0 0 0 -1.77 0 .939.939 0 0 1 -.842.465 1 1 0 0 1 -.9-1.452 3 3 0 0 1 5.25 0 1 1 0 0 1 -.896 1.452z"/><path d="m24.727 38a.939.939 0 0 1 -.842-.465 1 1 0 0 0 -1.77 0 .939.939 0 0 1 -.842.465 1 1 0 0 1 -.9-1.452 3 3 0 0 1 5.25 0 1 1 0 0 1 -.896 1.452z"/><path d="m32 51c-3.308 0-6.013-1.56-6.781-3.729a.959.959 0 0 1 .906-1.271h.1a1 1 0 0 1 .912.678c.526 1.313 2.54 2.322 4.863 2.322s4.337-1.009 4.865-2.322a1 1 0 0 1 .912-.678h.1a.959.959 0 0 1 .906 1.271c-.77 2.169-3.475 3.729-6.783 3.729z"/></g></g></svg>