<svg id="Layer_1" enable-background="new 0 0 512 512" height="512" viewBox="0 0 512 512" width="512" xmlns="http://www.w3.org/2000/svg"><g><g><g fill="#d8ecfe"><path d="m316.335 427.505h-18.118c-1.46 0-2.917.254-4.328.754l-.666.235v80.447l1 .877c11.667-1.557 23.077-3.924 34.164-7.063l1-1.326v-60.872c.002-7.197-5.854-13.052-13.052-13.052z"/><path d="m499.737 209.663-2.558-1h-103.012v-35.98c0-.577-.102-1.146-.298-1.683h91.017l1.644-1c-37.577-87.059-124.181-148-225.03-148-135.31 0-245 109.69-245 245 0 59.785 21.424 114.559 57 157.089l1-.364v-177.286c0-3.491 2.84-6.332 6.332-6.332h48.21v27.701c0 4.043 3.289 7.332 7.332 7.332h94.975c4.043 0 7.332-3.289 7.332-7.332v-27.701h48.21c3.492 0 6.332 2.841 6.332 6.332v159.052h91.992v71.844l1 .57c72.003-42.669 120.285-121.142 120.285-210.905 0-19.747-2.352-38.942-6.763-57.337z"/></g><g><path d="m495.036 382.758-43.716-43.716c-.117.158-.232.317-.375.46l-15.429 15.429c-.142.142-.3.259-.458.377l43.714 43.714c1.953 1.953 5.118 1.953 7.071 0l9.192-9.192c1.953-1.954 1.953-5.119.001-7.072z" fill="#5a5a5a"/></g><g><path d="m495.036 382.758-1.645-1.645-7.547 7.547c-1.953 1.953-5.118 1.953-7.071 0l-38.493-38.493-4.763 4.763c-.142.142-.3.259-.458.377l43.714 43.714c1.953 1.953 5.118 1.953 7.071 0l9.192-9.192c1.952-1.953 1.952-5.118 0-7.071z" fill="#444"/></g><g><path d="m293.224 404.491v25.106c1.523-.695 3.21-1.093 4.994-1.093h18.118c6.657 0 12.053 5.396 12.053 12.053v62.198c20.498-5.804 39.895-14.223 57.828-24.85v-73.414z" fill="#0172fb"/><g fill="#ffbd86"><path d="m393.167 172.683v36.98h106.569c-3.287-13.705-7.723-26.962-13.205-39.663h-94.417c.648.711 1.053 1.647 1.053 2.683z"/><path d="m99.54 209.663h121.846v-36.98c0-1.036.406-1.972 1.054-2.683h-119.453c1.795 3.338 2.816 7.152 2.816 11.2v12.418c0 6.182-2.377 11.817-6.263 16.045z"/></g><g fill="#f6a96c"><path d="m393.167 209.663h106.569c-1.133-4.723-2.411-9.388-3.813-14h-102.756z"/><path d="m221.386 195.663h-115.677c-.461 5.375-2.717 10.243-6.169 14h121.846z"/></g><path d="m389.167 167.683h-163.781c-2.761 0-5 2.239-5 5v58.726h10.964c3.492 0 6.332 2.841 6.332 6.332v2.366h49.21c3.492 0 6.332 2.841 6.332 6.332v159.051h95.264c3.137 0 5.679-2.543 5.679-5.679v-227.128c0-2.762-2.238-5-5-5z" fill="#fe9901"/><path d="m225.386 167.683c-2.761 0-5 2.239-5 5v58.726h10.964c3.492 0 6.332 2.841 6.332 6.332v2.366h24.537v-72.425h-36.833z" fill="#fb8801"/><g><g><path d="m245.487 77.101h9.159v-12.359c0-12.039 9.795-21.834 21.834-21.834h61.592c12.039 0 21.834 9.795 21.834 21.834v12.358h9.159c2.016 0 3.935.416 5.681 1.163v-40.555c.001-20.825-16.882-37.708-37.708-37.708h-59.524c-20.826 0-37.708 16.883-37.708 37.708v40.555c1.746-.747 3.665-1.162 5.681-1.162z" fill="#883f2e"/><path d="m245.487 77.101h9.159v-12.359c0-12.039 9.795-21.834 21.834-21.834h4.579v-5.2c0-20.825 16.883-37.708 37.709-37.708h-41.253c-20.826 0-37.708 16.883-37.708 37.708v40.555c1.745-.747 3.664-1.162 5.68-1.162z" fill="#6d3326"/><g><path d="m254.646 76.101h-9.159c-8.554 0-15.488 6.934-15.488 15.488v11.359c0 8.554 6.934 15.488 15.488 15.488h9.159z" fill="#f6a96c"/><path d="m369.066 76.101h-9.159v42.334h9.159c8.554 0 15.488-6.934 15.488-15.488v-11.359c-.001-8.554-6.935-15.487-15.488-15.487z" fill="#ffbd86"/></g><path d="m322.85 158.161h-31.147c-1.827 0-3.622-.138-5.379-.395v19.085c0 11.572 9.381 20.953 20.953 20.953 11.572 0 20.953-9.381 20.953-20.953v-19.085c-1.758.257-3.553.395-5.38.395z" fill="#ffbd86"/><path d="m307.094 176.851v-18.69h-15.391c-1.827 0-3.622-.138-5.379-.395v19.085c0 11.572 9.381 20.953 20.953 20.953 3.783 0 7.322-1.017 10.385-2.771-6.308-3.611-10.568-10.392-10.568-18.182z" fill="#f6a96c"/><g><path d="m322.85 159.161h-31.147c-21.018 0-38.057-17.039-38.057-38.057v-56.362c0-12.611 10.223-22.834 22.834-22.834h61.592c12.611 0 22.834 10.223 22.834 22.834v56.362c.001 21.018-17.038 38.057-38.056 38.057z" fill="#fed2a4"/></g><path d="m278 121.104v-56.362c0-12.611 10.223-22.834 22.834-22.834h-24.354c-12.611 0-22.834 10.223-22.834 22.834v56.362c0 21.018 17.039 38.057 38.057 38.057h24.354c-21.018 0-38.057-17.039-38.057-38.057z" fill="#ffbd86"/></g><g><g><g><path d="m281.72 92.818c-4.142 0-7.5-3.357-7.5-7.5v-8.082c0-4.143 3.358-7.5 7.5-7.5s7.5 3.357 7.5 7.5v8.082c0 4.143-3.358 7.5-7.5 7.5z" fill="#d88a55"/></g><g><path d="m332.833 92.818c-4.142 0-7.5-3.357-7.5-7.5v-8.082c0-4.143 3.358-7.5 7.5-7.5s7.5 3.357 7.5 7.5v8.082c0 4.143-3.358 7.5-7.5 7.5z" fill="#d88a55"/></g></g><g><path d="m309.004 138.891c-8.203 0-15.918-3.197-21.725-9.005-2.929-2.929-2.929-7.678 0-10.606s7.678-2.928 10.606.001c2.974 2.973 6.922 4.61 11.118 4.61s8.145-1.638 11.118-4.61c2.929-2.93 7.678-2.929 10.606-.001 2.929 2.929 2.929 7.678 0 10.606-5.805 5.807-13.52 9.005-21.723 9.005z" fill="#d88a55"/></g><g><path d="m312.847 111.229h-5.214c-5.573 0-10.107-4.534-10.107-10.107v-12.166c0-4.143 3.358-7.5 7.5-7.5s7.5 3.357 7.5 7.5v7.272h.321c4.142 0 7.5 3.357 7.5 7.5s-3.358 7.501-7.5 7.501z" fill="#d88a55"/></g></g></g><g><g><path d="m95.114 181.959c-10.047 0-18.221-8.174-18.221-18.221v-1.516c0-2.045-.512-4.011-1.468-5.757h-16.11-.532-34.241c-3.429 0-6.209 2.78-6.209 6.209s2.78 6.21 6.209 6.21h34.241v3.98h-47.074c-3.429 0-6.209 2.78-6.209 6.209s2.78 6.209 6.209 6.209h47.074v4.236h-38.794c-3.429 0-6.209 2.78-6.209 6.209s2.78 6.209 6.209 6.209h38.794v3.997h-30.101c-3.429 0-6.209 2.78-6.209 6.209s2.78 6.209 6.209 6.209h30.101.532 22.753c13.661 0 24.735-11.074 24.735-24.735v-11.659h-11.689z" fill="#fed2a4"/></g><g><path d="m75.893 163.738v-1.515c0-2.923-1.161-5.726-3.228-7.793l-7.438-7.438c-2.667-2.667-2.667-6.991 0-9.658 2.667-2.667 6.991-2.667 9.658 0l24.673 24.673c4.639 4.639 7.245 10.93 7.245 17.49v3.461h-11.689c-10.616.001-19.221-8.604-19.221-19.22z" fill="#ffe5c2"/></g></g></g><g><path d="m451.652 333.138-8.957-8.957c-2.555 4.6-5.767 8.93-9.669 12.832-3.86 3.86-8.176 7.095-12.816 9.684l8.941 8.941c1.953 1.953 5.118 1.953 7.071 0l15.429-15.429c1.954-1.953 1.954-5.119.001-7.071z" fill="#9c9c9c"/><path d="m451.652 333.138-1.516-1.516-13.913 13.913c-1.953 1.953-5.118 1.953-7.071 0l-2.79-2.79c-1.972 1.455-4.03 2.767-6.152 3.951l8.941 8.941c1.953 1.953 5.118 1.953 7.071 0l15.429-15.429c1.954-1.952 1.954-5.118.001-7.07z" fill="#838383"/><g><g><circle cx="392.014" cy="296" fill="#0172fb" r="59"/></g><g><circle cx="392.014" cy="296" fill="#8ac9fe" r="41"/></g><g><path d="m383.023 324.991c-16.011-16.011-16.011-41.971 0-57.983 5.441-5.441 12.033-9.029 18.991-10.771-13.517-3.386-28.421.201-38.991 10.771-16.012 16.011-16.012 41.971 0 57.983 10.57 10.57 25.474 14.157 38.991 10.771-6.958-1.742-13.55-5.329-18.991-10.771z" fill="#60b7ff"/></g></g></g><g><path d="m286.892 239.107h-49.211v28.701c0 3.491-2.84 6.332-6.332 6.332h-94.975c-3.492 0-6.332-2.841-6.332-6.332v-28.701h-49.21c-4.049 0-7.332 3.283-7.332 7.332v177.65c44.942 53.728 112.475 87.911 188 87.911 11.097 0 22.018-.752 32.724-2.181v-263.38c0-4.049-3.282-7.332-7.332-7.332z" fill="#ffe5c2"/><path d="m271.24 492h-101.381l-3.06 1c29.134 12.228 61.124 19 94.701 19 4.029 0 8.034-.104 12.016-.296v-18.704z" fill="#f8f6f6"/><path d="m270.516 259.816h-32.834v7.993c0 3.491-2.84 6.332-6.332 6.332h-94.975c-3.492 0-6.332-2.841-6.332-6.332v-7.993h-32.834c-1.657 0-3 1.343-3 3v183.156c21.05 19.684 45.566 35.704 72.546 47.029h106.761v-230.185c0-1.657-1.343-3-3-3z" fill="#fff"/><path d="m130.042 267.809v-7.993h-32.833c-1.657 0-3 1.343-3 3v183.156c11.511 10.764 24.064 20.423 37.484 28.827v-202.742c-1.022-1.125-1.651-2.613-1.651-4.248z" fill="#f8f6f6"/><g><g><path d="m231.35 275.14h-94.975c-4.049 0-7.332-3.283-7.332-7.332v-30.067c0-4.049 3.283-7.332 7.332-7.332h94.975c4.049 0 7.332 3.283 7.332 7.332v30.067c0 4.05-3.283 7.332-7.332 7.332z" fill="#fac600"/></g></g><path d="m160.361 267.808v-30.067c0-4.049 3.283-7.332 7.332-7.332h-31.318c-4.049 0-7.332 3.283-7.332 7.332v30.067c0 4.049 3.283 7.332 7.332 7.332h31.318c-4.05 0-7.332-3.282-7.332-7.332z" fill="#e8b800"/><g><g><path d="m170.239 307.242h-14.852c-.989 0-1.791-.802-1.791-1.791v-14.852c0-.989-.802-1.791-1.791-1.791h-17.688c-.989 0-1.791.802-1.791 1.791v14.852c0 .989-.802 1.791-1.791 1.791h-14.852c-.989 0-1.791.802-1.791 1.791v17.688c0 .989.802 1.791 1.791 1.791h14.852c.989 0 1.791.802 1.791 1.791v14.852c0 .989.802 1.791 1.791 1.791h17.688c.989 0 1.791-.802 1.791-1.791v-14.852c0-.989.802-1.791 1.791-1.791h14.852c.989 0 1.791-.802 1.791-1.791v-17.688c0-.989-.802-1.791-1.791-1.791z" fill="#22b27f"/></g></g><g><path d="m144.225 336.139c-.989 0-1.791-.802-1.791-1.791v-14.852c0-.989-.802-1.791-1.791-1.791h-14.852c-.989 0-1.791-.802-1.791-1.791v-8.671h-8.318c-.989 0-1.791.802-1.791 1.791v17.688c0 .989.802 1.791 1.791 1.791h14.852c.989 0 1.791.802 1.791 1.791v14.852c0 .989.802 1.791 1.791 1.791h17.688c.989 0 1.791-.802 1.791-1.791v-9.017z" fill="#09a76d"/></g><g><g><path d="m206.228 260.274h-44.731c-4.142 0-7.5-3.357-7.5-7.5s3.358-7.5 7.5-7.5h44.731c4.142 0 7.5 3.357 7.5 7.5s-3.358 7.5-7.5 7.5z" fill="#fff"/></g></g><g><g><g><g><path d="m155.777 453.718h-40.402c-4.142 0-7.5-3.357-7.5-7.5s3.358-7.5 7.5-7.5h40.402c4.142 0 7.5 3.357 7.5 7.5s-3.358 7.5-7.5 7.5z" fill="#cecece"/></g></g><g><path d="m155.777 468.281h-33.966c7.852 5.46 16.037 10.473 24.521 15h9.445c4.142 0 7.5-3.357 7.5-7.5s-3.358-7.5-7.5-7.5z" fill="#cecece"/></g></g><g><g><g><path d="m252.349 453.718h-75.878c-4.142 0-7.5-3.357-7.5-7.5s3.358-7.5 7.5-7.5h75.878c4.142 0 7.5 3.357 7.5 7.5s-3.358 7.5-7.5 7.5z" fill="#cecece"/></g></g><g><g><path d="m252.349 483.281h-75.878c-4.142 0-7.5-3.357-7.5-7.5s3.358-7.5 7.5-7.5h75.878c4.142 0 7.5 3.357 7.5 7.5s-3.358 7.5-7.5 7.5z" fill="#cecece"/></g></g></g></g><g><g><path d="m252.349 317.729h-31.534c-4.142 0-7.5-3.357-7.5-7.5s3.358-7.5 7.5-7.5h31.534c4.142 0 7.5 3.357 7.5 7.5s-3.358 7.5-7.5 7.5z" fill="#22b27f"/></g></g><g><g><path d="m252.349 342.365h-41.886c-4.142 0-7.5-3.357-7.5-7.5s3.358-7.5 7.5-7.5h41.886c4.142 0 7.5 3.357 7.5 7.5s-3.358 7.5-7.5 7.5z" fill="#cecece"/></g></g></g></g><g><path d="m191.362 408.185v-37.845c0-4.143-3.358-7.5-7.5-7.5s-7.5 3.357-7.5 7.5v37.845z" fill="#8ac9fe"/><path d="m163.967 408.185v-14.922c0-4.143-3.358-7.5-7.5-7.5s-7.5 3.357-7.5 7.5v14.922z" fill="#fe646f"/><path d="m246.152 408.185v-16.559c0-4.143-3.358-7.5-7.5-7.5s-7.5 3.357-7.5 7.5v16.559z" fill="#fe646f"/><path d="m218.757 408.185v-22.547c0-4.143-3.358-7.5-7.5-7.5s-7.5 3.357-7.5 7.5v22.547z" fill="#22b27f"/><path d="m136.572 408.185v-37.845c0-4.143-3.358-7.5-7.5-7.5s-7.5 3.357-7.5 7.5v37.845z" fill="#8ac9fe"/></g><g><g><path d="m252.349 422.185h-136.974c-4.142 0-7.5-3.357-7.5-7.5s3.358-7.5 7.5-7.5h136.974c4.142 0 7.5 3.357 7.5 7.5s-3.358 7.5-7.5 7.5z" fill="#cecece"/></g></g></g></svg>